# AST/ASF file generated using VICON BodyLanguage
# -----------------------------------------------
:version 1.10
:name VICON
:units
  mass 1.0
  length 0.45
  angle deg
:documentation
   .ast/.asf automatically generated from VICON data using
   VICON BodyBuilder and BodyLanguage model FoxedUp or BRILLIANT.MOD
:root
   order TX TY TZ RX RY RZ
   axis XYZ
   position 0 0 0  
   orientation 0 0 0 
:bonedata
  begin
     id 1 
     name lhipjoint
     direction 0.690799 -0.707083 0.151096 
     length 2.54797 
     axis 0 0 0  XYZ
  end
  begin
     id 2 
     name lfemur
     direction 0.34202 -0.939693 0  
     length 7.21646  
     axis 0 0 20  XYZ
    dof rx ry rz
    limits (-160.0 20.0)
           (-70.0 70.0)
           (-60.0 70.0)
  end
  begin
     id 3 
     name ltibia
     direction 0.34202 -0.939693 0   
     length 8.16759   
     axis 0 0 20   XYZ
    dof rx
    limits (-10.0 170.0)
  end
  begin
     id 4 
     name lfoot
     direction 0.0487203 -0.133858 0.989802   
     length 1.93375   
     axis -90 7.62852e-016 20   XYZ
    dof rx rz
    limits (-45.0 90.0)
           (-70.0 20.0)
  end
  begin
     id 5 
     name ltoes
     direction 1.53453e-011 -4.21783e-011 1   
     length 0.979747   
     axis -90 7.62852e-016 20   XYZ
    dof rx
    limits (-90.0 20.0)
  end
  begin
     id 6 
     name rhipjoint
     direction -0.694693 -0.703425 0.150315   
     length 2.56122  
     axis 0 0 0  XYZ 
  end
  begin
     id 7 
     name rfemur
     direction -0.34202 -0.939693 0   
     length 7.36786   
     axis 0 0 -20   XYZ
    dof rx ry rz
    limits (-160.0 20.0)
           (-70.0 70.0)
           (-70.0 60.0)
  end
  begin
     id 8 
     name rtibia
     direction -0.34202 -0.939693 0   
     length 8.07288   
     axis 0 0 -20   XYZ
    dof rx
    limits (-10.0 170.0)
 end
 begin
     id 9 
     name rfoot
     direction -0.0428397 -0.117701 0.992125   
     length 1.88295  
     axis -90 -7.62852e-016 -20   XYZ
    dof rx rz
    limits (-45.0 90.0)
           (-20.0 70.0)
  end
  begin
     id 10 
     name rtoes
     direction -1.53456e-011 -4.2187e-011 1   
     length 0.955578   
     axis -90 -7.62852e-016 -20   XYZ
    dof rx
    limits (-90.0 20.0)
  end
  begin
     id 11 
     name lowerback
     direction 0.0288145 0.999398 -0.0193241   
     length 1.92149   
     axis 0 0 0   XYZ
    dof rx ry rz
    limits (-20.0 45.0)
           (-30.0 30.0)
           (-30.0 30.0)
  end
  begin
     id 12 
     name upperback
     direction 0.0233784 0.998099 0.0570278   
     length 1.90435   
     axis 0 0 0   XYZ
    dof rx ry rz
    limits (-20.0 45.0)
           (-30.0 30.0)
           (-30.0 30.0)
  end
  begin
     id 13 
     name thorax
     direction 0.0096694 0.997833 0.0650817   
     length 1.9111   
     axis 0 0 0   XYZ
    dof rx ry rz
    limits (-20.0 45.0)
           (-30.0 30.0)
           (-30.0 30.0)
  end
  begin
     id 14 
     name lowerneck
     direction 0.00516803 0.999916 0.0118722   
     length 1.74664   
     axis 0 0 0   XYZ
    dof rx ry rz
    limits (-20.0 45.0)
           (-30.0 30.0)
           (-30.0 30.0)
  end
  begin
     id 15 
     name upperneck
     direction -0.0510851 0.996117 -0.071696   
     length 1.68498   
     axis 0 0 0   XYZ
    dof rx ry rz
    limits (-20.0 45.0)
           (-30.0 30.0)
           (-30.0 30.0)
  end
  begin
     id 16
     name head
     direction -0.019188 0.999436 -0.0275702  
     length 1.83483  
     axis 0 0 0   XYZ
    dof rx ry rz
    limits (-20.0 45.0)
           (-30.0 30.0)
           (-30.0 30.0)
  end
  begin
     id 17 
     name lclavicle
     direction 0.967006 0.248456 -0.0562957  
     length 3.39395  
     axis 0 0 0   XYZ
    dof ry rz
    limits (-20.0 10.0)
           (0.0 20.0)
  end
  begin
     id 18 
     name lhumerus
     direction 1 -4.48962e-011 -5.62711e-019   
     length 5.24318   
     axis 180 -30 -90   XYZ
    dof rx ry rz
    limits (-60.0 90.0)
           (-90.0 90.0)
           (-90.0 90.0)
  end
  begin
     id 19
     name lradius
     direction 1 -4.48966e-011 7.90625e-027   
     length 2.98999   
     axis 180 -30 -90   XYZ
    dof rx
    limits (-10.0 170.0)
  end
  begin
     id 20
     name lwrist
     direction 1 -4.48959e-011 1.61068e-026   
     length 1.49499   
     axis -9.31229e-015 90 90   XYZ
    dof ry
    limits (-180.0 0.0)
 end
  begin
     id 21 
     name lhand
     direction 1 -4.49017e-011 3.22136e-026   
     length 0.726745   
     axis -2.0555e-014 90 90   XYZ
    dof rx rz
    limits (-90.0 90.0)
           (-45.0 45.0)
  end
  begin
     id 22 
     name lfingers
     direction 1 -4.4898e-011 6.44272e-026   
     length 0.58592   
     axis -4.11101e-014 90 90   XYZ
    dof rx
    limits (0.0 90.0)
  end
  begin
     id 23
     name lthumb
     direction 0.707107 -6.34922e-011 0.707107   
     length 0.841268   
     axis -90 45 2.85299e-015   XYZ
    dof rx rz
    limits (-45.0 45.0)
           (-45.0 45.0)
  end
  begin
     id 24 
     name rclavicle
     direction -0.972232 0.230238 0.0419005   
     length 3.40416  
     axis 0 0 0   XYZ 
    dof ry rz
    limits (-10.0 20.0)
           (-20.0 0.0)
  end
  begin
     id 25 
     name rhumerus
     direction -1 -4.48976e-011 2.48487e-027  
     length 5.37045   
     axis 180 30 90   XYZ
    dof rx ry rz
    limits (-90.0 60.0)
           (-90.0 90.0)
           (-90.0 90.0)
  end
  begin
     id 26 
     name rradius
     direction -1 -4.48942e-011 7.87951e-027   
     length 2.92792   
     axis 180 30 90   XYZ
    dof rx
    limits (-10.0 170.0)
  end
  begin
     id 27 
     name rwrist
     direction -1 -4.48969e-011 1.61068e-026   
     length 1.46396   
     axis -9.31229e-015 -90 -90   XYZ
    dof ry
    limits (-180.0 0.0)
  end
  begin
     id 28
     name rhand
     direction -1 -4.49043e-011 3.22136e-026   
     length 0.784497   
     axis -2.0555e-014 -90 -90   XYZ
    dof rx rz
    limits (-90.0 90.0)
           (-45.0 45.0)
  end
  begin
     id 29
     name rfingers
     direction -1 -4.48823e-011 6.44272e-026   
     length 0.632482   
     axis -4.11101e-014 -90 -90   XYZ
    dof rx
    limits (0.0 90.0)
  end
  begin
     id 30
     name rthumb
     direction -0.707107 -6.34923e-011 0.707107   
     length 0.908121   
     axis -90 -45 -2.85299e-015   XYZ
    dof rx rz
    limits (-45.0 45.0)
           (-45.0 45.0)
  end
:hierarchy
  begin
    root lhipjoint rhipjoint lowerback
    lhipjoint lfemur
    lfemur ltibia
    ltibia lfoot
    lfoot ltoes
    rhipjoint rfemur
    rfemur rtibia
    rtibia rfoot
    rfoot rtoes
    lowerback upperback
    upperback thorax
    thorax lowerneck lclavicle rclavicle
    lowerneck upperneck
    upperneck head
    lclavicle lhumerus
    lhumerus lradius
    lradius lwrist
    lwrist lhand lthumb
    lhand lfingers
    rclavicle rhumerus
    rhumerus rradius
    rradius rwrist
    rwrist rhand rthumb
    rhand rfingers
  end

#!OML:ASF E:\Style6\Style6.ASF
:FULLY-SPECIFIED
:DEGREES
927
root -0.49983 17.8109 -1.14151 16.6325 -6.76131 5.90419
lowerback 25.6748 -3.08795 4.41307
upperback 7.22483 -2.36846 6.14454
thorax -6.10431 -1.19226 4.96734
lowerneck 2.15084 -4.24157 4.9398
upperneck -23.8339 -8.79122 -13.1061
head -8.50728 -3.63194 -4.55222
rclavicle -7.4743e-014 1.90833e-014
rhumerus 10.4152 42.6 -80.6245
rradius 122.075
rwrist 31.6755
rhand -2.58927 4.67119
rfingers 7.12502
rthumb 23.1081 -23.9631
lclavicle -7.4743e-014 1.90833e-014
lhumerus -11.6444 -26.2343 97.5581
lradius 124.389
lwrist -26.3939
lhand -19.6581 20.291
lfingers 7.12502
lthumb 6.66986 50.1659
rfemur -41.4425 0.487448 15.0598
rtibia 34.9147
rfoot -5.47074 -8.28623
rtoes -8.16151
lfemur -31.8455 -2.5158 -20.7899
ltibia 25.8686
lfoot -2.28822 14.7156
ltoes -25.2443
928
root -0.504382 17.8119 -1.14168 16.6179 -6.82683 6.01602
lowerback 25.7207 -3.06315 4.32922
upperback 7.21052 -2.35262 6.14507
thorax -6.14085 -1.18411 5.01484
lowerneck 2.07061 -4.21126 4.91686
upperneck -23.7371 -8.72655 -13.0682
head -8.4493 -3.60838 -4.54044
rclavicle 3.33958e-014 3.33958e-014
rhumerus 10.4447 42.7145 -80.6173
rradius 122.003
rwrist 31.6655
rhand -2.55876 4.71185
rfingers 7.12502
rthumb 23.1374 -23.9187
lclavicle 3.33958e-014 3.33958e-014
lhumerus -11.7461 -26.1349 97.5003
lradius 124.398
lwrist -26.2599
lhand -19.7808 20.1696
lfingers 7.12502
lthumb 6.55143 50.0483
rfemur -41.4883 0.472636 14.9656
rtibia 34.9703
rfoot -5.38287 -8.27496
rtoes -8.99951
lfemur -31.7791 -2.56235 -20.8789
ltibia 25.7806
lfoot -2.19471 14.7579
ltoes -25.3925
929
root -0.509277 17.8108 -1.14222 16.6187 -6.86079 6.09659
lowerback 25.6827 -3.05223 4.31718
upperback 7.24993 -2.34859 6.14015
thorax -6.07821 -1.18259 5.01045
lowerneck 2.0643 -4.1664 4.89074
upperneck -23.7761 -8.65607 -13.0184
head -8.4506 -3.57548 -4.52599
rclavicle -3.18055e-015 3.49861e-014
rhumerus 10.574 42.8104 -80.5611
rradius 121.995
rwrist 31.7375
rhand -2.43411 4.65048
rfingers 7.12502
rthumb 23.257 -23.965
lclavicle -3.18055e-015 3.49861e-014
lhumerus -11.7387 -26.0643 97.3399
lradius 124.447
lwrist -26.103
lhand -19.8535 20.0864
lfingers 7.12502
lthumb 6.48125 49.9673
rfemur -41.5327 0.477136 14.8956
rtibia 35.0155
rfoot -5.34261 -8.28891
rtoes -9.01728
lfemur -31.7263 -2.59074 -20.9391
ltibia 25.6862
lfoot -2.10683 14.7697
ltoes -25.5415
930
root -0.513208 17.8108 -1.14173 16.585 -6.89984 6.16215
lowerback 25.6361 -3.03667 4.31916
upperback 7.32424 -2.33874 6.13662
thorax -5.97316 -1.17876 4.99554
lowerneck 2.10923 -4.12284 4.77523
upperneck -23.8354 -8.58302 -12.9059
head -8.4622 -3.53576 -4.4735
rclavicle -3.02153e-014 -7.63333e-014
rhumerus 10.7559 42.8426 -80.4425
rradius 121.948
rwrist 31.7865
rhand -2.36949 4.61156
rfingers 7.12502
rthumb 23.319 -23.9961
lclavicle -3.02153e-014 -7.63333e-014
lhumerus -11.6611 -26.0166 97.1875
lradius 124.477
lwrist -26.0281
lhand -19.7345 20.0721
lfingers 7.12502
lthumb 6.59614 49.9494
rfemur -41.5301 0.444309 14.8542
rtibia 35.0514
rfoot -5.42816 -8.24805
rtoes -8.57321
lfemur -31.6481 -2.61454 -20.9877
ltibia 25.6174
lfoot -2.16213 14.7953
ltoes -25.0541
931
root -0.517013 17.8127 -1.14004 16.5475 -6.93427 6.17232
lowerback 25.6131 -3.02447 4.38356
upperback 7.37029 -2.31381 6.12972
thorax -5.91443 -1.16743 4.93959
lowerneck 2.11342 -4.10369 4.71456
upperneck -23.7617 -8.52734 -12.8176
head -8.42564 -3.51259 -4.43526
rclavicle 1.59028e-014 -1.01778e-013
rhumerus 10.8369 42.8591 -80.378
rradius 121.924
rwrist 31.8104
rhand -2.38698 4.45859
rfingers 7.12502
rthumb 23.3022 -24.1512
lclavicle 1.59028e-014 -1.01778e-013
lhumerus -11.635 -25.9591 97.124
lradius 124.443
lwrist -26.0667
lhand -19.442 20.0409
lfingers 7.12502
lthumb 6.87853 49.9092
rfemur -41.5068 0.436052 14.8665
rtibia 35.0938
rfoot -5.51413 -8.21903
rtoes -8.50644
lfemur -31.5704 -2.61994 -20.9814
ltibia 25.5776
lfoot -2.22942 14.8171
ltoes -24.741
932
root -0.519386 17.8124 -1.13924 16.5699 -6.96248 6.15497
lowerback 25.5848 -3.01429 4.48074
upperback 7.37349 -2.27985 6.13066
thorax -5.90197 -1.15144 4.87279
lowerneck 1.98381 -4.0963 4.72494
upperneck -23.5385 -8.48477 -12.8175
head -8.32093 -3.50459 -4.43874
rclavicle 3.02153e-014 -6.99722e-014
rhumerus 10.7841 42.9172 -80.3875
rradius 121.946
rwrist 31.8658
rhand -2.43294 4.3095
rfingers 7.12502
rthumb 23.2581 -24.3059
lclavicle 3.02153e-014 -6.99722e-014
lhumerus -11.6537 -25.9325 97.113
lradius 124.427
lwrist -26.0687
lhand -19.2502 20.1393
lfingers 7.12502
lthumb 7.06368 50.0014
rfemur -41.5609 0.413433 14.9062
rtibia 35.1487
rfoot -5.5051 -8.15146
rtoes -8.56468
lfemur -31.5765 -2.63744 -20.9449
ltibia 25.5687
lfoot -2.29968 14.8686
ltoes -24.5869
933
root -0.521097 17.809 -1.14002 16.6094 -6.98853 6.22578
lowerback 25.5587 -2.99919 4.49104
upperback 7.35734 -2.26096 6.10622
thorax -5.90958 -1.14201 4.83289
lowerneck 1.92133 -4.07864 4.82516
upperneck -23.3497 -8.44101 -12.8978
head -8.24731 -3.49301 -4.48532
rclavicle -1.74931e-014 2.22639e-014
rhumerus 10.7141 42.962 -80.4382
rradius 121.95
rwrist 31.9489
rhand -2.4055 4.28191
rfingers 7.12502
rthumb 23.2844 -24.3301
lclavicle -1.74931e-014 2.22639e-014
lhumerus -11.7121 -25.9404 97.0837
lradius 124.46
lwrist -26.0012
lhand -19.2188 20.2479
lfingers 7.12502
lthumb 7.09393 50.109
rfemur -41.6536 0.371433 14.8459
rtibia 35.2034
rfoot -5.45303 -8.09865
rtoes -9.2743
lfemur -31.6397 -2.63679 -21.0176
ltibia 25.5919
lfoot -2.28608 14.8832
ltoes -24.7944
934
root -0.522051 17.8054 -1.14165 16.5999 -7.00331 6.29071
lowerback 25.5535 -2.99346 4.52086
upperback 7.37311 -2.24944 6.08667
thorax -5.89198 -1.13639 4.78934
lowerneck 2.04382 -4.04086 4.75956
upperneck -23.3453 -8.37868 -12.8614
head -8.25805 -3.45437 -4.46406
rclavicle 3.18055e-015 -6.20208e-014
rhumerus 10.7817 42.9317 -80.355
rradius 121.929
rwrist 31.9279
rhand -2.44397 4.38431
rfingers 7.12502
rthumb 23.2475 -24.2324
lclavicle 3.18055e-015 -6.20208e-014
lhumerus -11.7477 -25.9497 97.079
lradius 124.472
lwrist -25.9334
lhand -19.2076 20.2397
lfingers 7.12502
lthumb 7.10474 50.1005
rfemur -41.6926 0.293605 14.8113
rtibia 35.2752
rfoot -5.43608 -8.03654
rtoes -9.97765
lfemur -31.6479 -2.61983 -21.093
ltibia 25.6232
lfoot -2.27703 14.8422
ltoes -24.9778
935
root -0.523204 17.8038 -1.1427 16.5999 -6.94147 6.231
lowerback 25.5346 -3.02733 4.66743
upperback 7.38839 -2.25585 6.12888
thorax -5.8681 -1.14005 4.75288
lowerneck 2.17465 -3.99404 4.61489
upperneck -23.2893 -8.30858 -12.8422
head -8.24994 -3.40485 -4.43439
rclavicle 1.59028e-015 1.74931e-014
rhumerus 10.8596 42.9233 -80.2462
rradius 121.922
rwrist 31.8633
rhand -2.59772 4.36458
rfingers 7.12502
rthumb 23.1 -24.2707
lclavicle 1.59028e-015 1.74931e-014
lhumerus -11.751 -25.8338 97.0828
lradius 124.43
lwrist -25.7538
lhand -19.2058 19.7886
lfingers 7.12502
lthumb 7.1065 49.6492
rfemur -41.7157 0.211134 14.9192
rtibia 35.3563
rfoot -5.48219 -7.99682
rtoes -9.69239
lfemur -31.6668 -2.5723 -21.0341
ltibia 25.6556
lfoot -2.30325 14.7601
ltoes -24.9648
936
root -0.526866 17.8009 -1.1458 16.5519 -6.94025 6.27786
lowerback 25.5738 -3.01531 4.61952
upperback 7.40415 -2.24826 6.15035
thorax -5.8677 -1.13649 4.80376
lowerneck 2.17803 -3.93807 4.49542
upperneck -23.0273 -8.20924 -12.88
head -8.14857 -3.34998 -4.42971
rclavicle -3.02153e-014 2.22639e-014
rhumerus 10.9062 42.9192 -80.2001
rradius 121.949
rwrist 31.8213
rhand -2.57917 4.23527
rfingers 7.12502
rthumb 23.1178 -24.3978
lclavicle -3.02153e-014 2.22639e-014
lhumerus -11.7005 -25.669 97.0426
lradius 124.364
lwrist -25.4416
lhand -19.247 19.0955
lfingers 7.12502
lthumb 7.06672 48.9575
rfemur -41.7258 0.172442 14.8992
rtibia 35.4286
rfoot -5.48935 -7.98884
rtoes -9.77131
lfemur -31.6667 -2.53274 -21.0801
ltibia 25.7062
lfoot -2.34538 14.7237
ltoes -24.8562
937
root -0.527238 17.7977 -1.14566 16.4039 -6.96026 6.38205
lowerback 25.6633 -3.01068 4.57323
upperback 7.46665 -2.25203 6.1311
thorax -5.84145 -1.13825 4.81248
lowerneck 2.07099 -3.8683 4.37464
upperneck -22.6522 -8.07929 -12.9352
head -7.98668 -3.28698 -4.43331
rclavicle 4.92986e-014 3.97569e-014
rhumerus 10.9404 42.8957 -80.1573
rradius 121.98
rwrist 31.8653
rhand -2.46886 4.17249
rfingers 7.12502
rthumb 23.2236 -24.4472
lclavicle 4.92986e-014 3.97569e-014
lhumerus -11.6407 -25.7259 96.98
lradius 124.458
lwrist -25.2473
lhand -19.1411 19.2363
lfingers 7.12502
lthumb 7.16896 49.0949
rfemur -41.6405 0.112897 14.7976
rtibia 35.5171
rfoot -5.57925 -7.91527
rtoes -9.33681
lfemur -31.5566 -2.62129 -21.1813
ltibia 25.7752
lfoot -2.42364 14.8043
ltoes -24.3979
938
root -0.527097 17.7963 -1.14506 16.2584 -6.93247 6.3707
lowerback 25.758 -3.03234 4.69216
upperback 7.54526 -2.24773 6.13069
thorax -5.80463 -1.13653 4.74503
lowerneck 2.01188 -3.77703 4.37925
upperneck -22.3681 -7.95856 -13.1691
head -7.87719 -3.21977 -4.52046
rclavicle -7.95139e-015 -5.88403e-014
rhumerus 11.0035 42.8142 -80.0265
rradius 122.015
rwrist 31.8289
rhand -2.46179 4.15403
rfingers 7.12502
rthumb 23.2304 -24.4648
lclavicle -7.95139e-015 -5.88403e-014
lhumerus -11.5976 -26.0034 96.9686
lradius 124.659
lwrist -25.2645
lhand -18.969 20.169
lfingers 7.12502
lthumb 7.33503 50.0219
rfemur -41.5248 0.055258 14.8297
rtibia 35.5944
rfoot -5.6261 -7.85519
rtoes -8.94426
lfemur -31.4269 -2.67531 -21.1662
ltibia 25.8252
lfoot -2.42098 14.8141
ltoes -24.4611
939
root -0.537012 17.7899 -1.15435 16.3952 -7.00279 6.41737
lowerback 25.603 -2.93921 4.53204
upperback 7.54832 -2.18252 6.14703
thorax -5.72234 -1.10576 4.82513
lowerneck 2.07091 -3.6569 4.42954
upperneck -22.1471 -7.81279 -13.4713
head -7.81205 -3.13156 -4.64003
rclavicle 0 -5.40694e-014
rhumerus 11.0194 42.6957 -79.9416
rradius 122.082
rwrist 31.7161
rhand -2.41557 4.16741
rfingers 7.12502
rthumb 23.2748 -24.4459
lclavicle 0 -5.40694e-014
lhumerus -11.5908 -26.1793 96.9715
lradius 124.808
lwrist -25.3261
lhand -18.821 20.6428
lfingers 7.12502
lthumb 7.47794 50.4906
rfemur -41.7742 0.0734695 14.8355
rtibia 35.6838
rfoot -5.49053 -7.83369
rtoes -9.69908
lfemur -31.6494 -2.26749 -21.2763
ltibia 25.8887
lfoot -2.44855 14.4575
ltoes -24.8545
940
root -0.531851 17.7904 -1.14841 16.0014 -6.99107 6.42839
lowerback 25.9229 -3.00868 4.73509
upperback 7.68214 -2.20819 6.06711
thorax -5.73942 -1.11757 4.64116
lowerneck 1.97544 -3.5226 4.45497
upperneck -21.7505 -7.61378 -13.727
head -7.65146 -3.03165 -4.74213
rclavicle 3.33958e-014 -1.59028e-015
rhumerus 11.044 42.6163 -79.9051
rradius 122.201
rwrist 31.6613
rhand -2.27788 3.94889
rfingers 7.12502
rthumb 23.4068 -24.6476
lclavicle 3.33958e-014 -1.59028e-015
lhumerus -11.5664 -26.296 96.9088
lradius 124.89
lwrist -25.3973
lhand -18.6987 20.4918
lfingers 7.12502
lthumb 7.59601 50.3354
rfemur -41.3737 0.00587557 14.8118
rtibia 35.7468
rfoot -5.60903 -7.73564
rtoes -9.32066
lfemur -31.264 -2.47486 -21.2918
ltibia 25.9768
lfoot -2.47357 14.6853
ltoes -25.0508
